<svg width="1200" height="620" viewBox="0 0 1200 620" fill="none" xmlns="http://www.w3.org/2000/svg">
  <defs>
    <linearGradient id="blogBg" x1="90" y1="60" x2="1110" y2="560" gradientUnits="userSpaceOnUse">
      <stop stop-color="#FFF8E8"/>
      <stop offset="0.48" stop-color="#EEF9FF"/>
      <stop offset="1" stop-color="#FFF9F1"/>
    </linearGradient>
  </defs>
  <rect width="1200" height="620" rx="36" fill="#FFFDF8"/>
  <rect x="56" y="56" width="1088" height="508" rx="34" fill="url(#blogBg)" stroke="#DCEAFE" stroke-width="2"/>
  <rect x="140" y="146" width="360" height="296" rx="28" fill="#FFFFFF" stroke="#D7E7F7" stroke-width="2"/>
  <rect x="180" y="196" width="280" height="20" rx="10" fill="#415474" fill-opacity="0.86"/>
  <rect x="180" y="238" width="236" height="16" rx="8" fill="#8AA8FF" fill-opacity="0.45"/>
  <rect x="180" y="274" width="258" height="16" rx="8" fill="#FFD88A" fill-opacity="0.7"/>
  <rect x="180" y="310" width="212" height="16" rx="8" fill="#A8F2C1" fill-opacity="0.72"/>
  <rect x="180" y="350" width="124" height="38" rx="19" fill="#E4F3FF"/>
  <circle cx="818" cy="244" r="76" fill="#95E4FA"/>
  <circle cx="894" cy="306" r="70" fill="#FFD572"/>
  <circle cx="958" cy="226" r="32" fill="#FFC6D6"/>
  <rect x="714" y="360" width="224" height="66" rx="24" fill="#FFFFFF" stroke="#D7E7F7" stroke-width="2"/>
  <text x="650" y="476" fill="#253550" font-family="Nunito, sans-serif" font-size="38" font-weight="800">
    <tspan x="650" dy="0">Блог для</tspan>
    <tspan x="650" dy="40">родителей и детей</tspan>
  </text>
  <text x="650" y="534" fill="#627290" font-family="Nunito, sans-serif" font-size="23">
    <tspan x="650" dy="0">Короткие, спокойные подсказки о привычках,</tspan>
    <tspan x="650" dy="28">правилах и мотивации без давления.</tspan>
  </text>
</svg>
